<svg width="555.895" height="555.895" viewBox="0 0 147.081 147.081" xmlns="http://www.w3.org/2000/svg">
   <g transform="translate(-33.663 -53.198)">
      <ellipse style="fill:#fd5;fill-rule:evenodd;stroke-width:.172275" cx="107.741" cy="132.683" rx="30.006" ry="29.464"/>
      <ellipse style="fill:#0cf;fill-rule:evenodd;stroke-width:.368026" cx="108.644" cy="144.963" rx="54.698" ry="5.583"/>
      <path style="fill:#000;fill-rule:evenodd;stroke-width:.264583" d="M77.124 90.504a4.159 4.159 0 0 0-2.66.95l-3.119 2.556a4.18 4.18 0 0 0-.589 5.887l12.485 15.287a4.161 4.161 0 0 0 4.425 1.362l8.687 10.617a52.189 13.047 0 0 1-41.075-12.156 59.716 21.076 0 0 0-7.104 9.946 59.716 21.076 0 0 0 59.717 21.076 59.716 21.076 0 0 0 3.862-.045l7.562 9.243a4.174 4.174 0 0 0 .212 4.89l12.233 15.501a4.156 4.156 0 0 0 5.859.685l3.168-2.509a4.175 4.175 0 0 0 .687-5.87l-12.233-15.5a4.156 4.156 0 0 0-4.901-1.256l-4.552-5.564a59.716 21.076 0 0 0 47.82-20.651 59.716 21.076 0 0 0-8.03-10.555 52.189 13.047 0 0 1 0 .016 52.189 13.047 0 0 1-52.189 13.048 52.189 13.047 0 0 1-2.463-.022l-12.11-14.802a4.178 4.178 0 0 0 .008-5.309L80.34 92.042a4.16 4.16 0 0 0-3.216-1.538z"/>
   </g>
</svg>